<svg width="58" height="55" viewBox="0 0 58 55" fill="none" xmlns="http://www.w3.org/2000/svg">
<path d="M37.8001 48.3893H35.9355C34.7722 48.3893 33.6565 47.7701 32.834 46.6678C32.0114 45.5656 31.5493 44.0707 31.5493 42.5119V13.0315C31.5493 11.4728 32.0114 9.97783 32.834 8.87561C33.6565 7.77339 34.7722 7.15417 35.9355 7.15417H37.8001" stroke="#F6255A" stroke-width="3" stroke-miterlimit="10" stroke-linecap="round" stroke-linejoin="round"/>
<path d="M37.2319 27.7717L31.5493 27.7717" stroke="#F6255A" stroke-width="3" stroke-miterlimit="10" stroke-linecap="round" stroke-linejoin="round"/>
<path d="M50.793 11.9561C53.4244 11.9561 55.5575 10.0212 55.5575 7.63446C55.5575 5.24771 53.4244 3.31287 50.793 3.31287C48.1617 3.31287 46.0286 5.24771 46.0286 7.63446C46.0286 10.0212 48.1617 11.9561 50.793 11.9561Z" stroke="#F6255A" stroke-width="3" stroke-miterlimit="10" stroke-linecap="round" stroke-linejoin="round"/>
<path d="M50.793 32.3878C53.4244 32.3878 55.5575 30.453 55.5575 28.0662C55.5575 25.6795 53.4244 23.7446 50.793 23.7446C48.1617 23.7446 46.0286 25.6795 46.0286 28.0662C46.0286 30.453 48.1617 32.3878 50.793 32.3878Z" stroke="#F6255A" stroke-width="3" stroke-miterlimit="10" stroke-linecap="round" stroke-linejoin="round"/>
<path d="M50.7659 52.7949C53.3973 52.7949 55.5304 50.8601 55.5304 48.4733C55.5304 46.0865 53.3973 44.1516 50.7659 44.1516C48.1346 44.1516 46.0015 46.0865 46.0015 48.4733C46.0015 50.8601 48.1346 52.7949 50.7659 52.7949Z" stroke="#F6255A" stroke-width="3" stroke-miterlimit="10" stroke-linecap="round" stroke-linejoin="round"/>
<path d="M22.1435 21.4884V36.1536L17.935 38.2153V51.4827H6.20849V38.2153L2 36.1536V21.4884C2 19.9213 2.68634 18.4183 3.90804 17.3102C5.12975 16.202 6.78673 15.5795 8.51447 15.5795H15.629C17.3566 15.5797 19.0133 16.2024 20.2347 17.3105C21.4562 18.4186 22.1424 19.9214 22.1424 21.4884H22.1435Z" stroke="#F6255A" stroke-width="3" stroke-miterlimit="10" stroke-linecap="round" stroke-linejoin="round"/>
<path d="M12.0726 10.9409C14.7946 10.9409 17.0012 8.93943 17.0012 6.47046C17.0012 4.00149 14.7946 2 12.0726 2C9.35065 2 7.14404 4.00149 7.14404 6.47046C7.14404 8.93943 9.35065 10.9409 12.0726 10.9409Z" stroke="#F6255A" stroke-width="3" stroke-miterlimit="10" stroke-linecap="round" stroke-linejoin="round"/>
</svg>
