<svg width="59" height="56" viewBox="0 0 59 56" fill="none" xmlns="http://www.w3.org/2000/svg">
<rect x="1.5" y="1.5" width="55.8475" height="43.5352" rx="13.5" stroke="#F6255A" stroke-width="3"/>
<rect x="16.4773" y="51.2676" width="25.8929" height="2.84746" rx="1.42373" fill="#F6255A"/>
<path d="M36.7989 19.5061C36.5215 18.9153 36.5806 18.2015 37.0311 17.7292C37.5557 17.1794 37.5545 16.314 37.0284 15.7656L36.5853 15.3036C36.0734 14.77 35.2198 14.7711 34.7094 15.3062C34.2684 15.7685 33.5611 15.83 32.9915 15.5404C32.7174 15.401 32.4349 15.2771 32.1449 15.1698C31.529 14.942 31.0643 14.3869 31.0643 13.7302C31.0643 12.9619 30.4414 12.339 29.673 12.339H29.1746C28.4063 12.339 27.7834 12.9619 27.7834 13.7302C27.7834 14.3869 27.3186 14.942 26.7027 15.1698C26.4128 15.2771 26.1302 15.401 25.8561 15.5404C25.2866 15.83 24.5793 15.7685 24.1382 15.3062C23.6278 14.7711 22.7742 14.77 22.2624 15.3036L21.8188 15.7661C21.2931 16.3141 21.2924 17.1788 21.8172 17.7277C22.268 18.1992 22.3274 18.9129 22.0499 19.5033C21.9001 19.8221 21.7686 20.152 21.657 20.4915C21.4604 21.0895 20.9292 21.5393 20.2997 21.5393C19.5726 21.5393 18.9832 22.1287 18.9832 22.8558V23.6552C18.9832 24.3809 19.5714 24.9692 20.2971 24.9692C20.9264 24.9692 21.4571 25.4194 21.6523 26.0176C21.7646 26.3619 21.8975 26.6964 22.0491 27.0195C22.3248 27.6071 22.2646 28.3171 21.8154 28.7855C21.2931 29.33 21.2919 30.1891 21.8127 30.735L22.2644 31.2085C22.7734 31.742 23.6246 31.7431 24.135 31.211C24.5754 30.7519 25.2795 30.6918 25.8462 30.9808C26.1257 31.1234 26.414 31.2499 26.7101 31.3591C27.3219 31.5846 27.7834 32.1359 27.7834 32.788C27.7834 33.551 28.4019 34.1695 29.1649 34.1695H29.6828C30.4458 34.1695 31.0643 33.551 31.0643 32.788C31.0643 32.1359 31.5257 31.5846 32.1376 31.3591C32.4336 31.2499 32.7219 31.1234 33.0014 30.9808C33.5681 30.6918 34.2723 30.7519 34.7126 31.211C35.223 31.7431 36.0742 31.742 36.5832 31.2085L37.0349 30.735C37.5558 30.1891 37.5546 29.33 37.0323 28.7855C36.583 28.3171 36.5229 27.6071 36.7986 27.0195C36.9502 26.6964 37.083 26.3619 37.1954 26.0176C37.3905 25.4194 37.9213 24.9692 38.5506 24.9692C39.2762 24.9692 39.8645 24.3809 39.8645 23.6552V22.8558C39.8645 22.1287 39.2751 21.5393 38.548 21.5393C37.9185 21.5393 37.3872 21.0895 37.1906 20.4915C37.0794 20.153 36.9482 19.8241 36.7989 19.5061ZM29.4238 29.759C25.3383 29.759 23.1984 26.4379 23.1984 23.2626C23.1984 19.161 26.7076 16.7461 29.4238 16.7461C33.5093 16.7461 35.646 20.5422 35.646 23.2626C35.646 25.9831 33.5093 29.759 29.4238 29.759Z" fill="#F6255A"/>
</svg>
