<svg width="55" height="59" viewBox="0 0 55 59" fill="none" xmlns="http://www.w3.org/2000/svg">
<ellipse cx="27.3877" cy="21.4133" rx="19.2454" ry="19.4133" stroke="#F6255A" stroke-width="3"/>
<rect x="18.5051" y="19.92" width="17.765" height="3" rx="1.5" fill="#F6255A"/>
<path d="M30.5439 12.5882C30.2853 11.7959 30.8711 10.96 31.7045 10.96C32.2831 10.96 32.7716 11.3787 32.9298 11.9353C33.5053 13.9616 34.5839 15.5338 34.9783 21.04C34.9783 23.8703 33.8206 26.5561 32.9275 30.1732C32.7914 30.7243 32.3015 31.12 31.7338 31.12C30.8863 31.12 30.2905 30.2699 30.5529 29.464C31.2262 27.3968 32.251 23.7975 32.251 21.04C32.251 18.27 31.217 14.6508 30.5439 12.5882Z" fill="#F6255A"/>
<path d="M24.6014 12.5882C24.8599 11.7959 24.2742 10.96 23.4407 10.96C22.8621 10.96 22.3736 11.3787 22.2155 11.9353C21.6399 13.9616 20.5613 15.5338 20.167 21.04C20.167 23.8703 21.3247 26.5561 22.2178 30.1732C22.3539 30.7243 22.8438 31.12 23.4115 31.12C24.259 31.12 24.8548 30.2699 24.5923 29.464C23.919 27.3968 22.8943 23.7975 22.8943 21.04C22.8943 18.27 23.9283 14.6508 24.6014 12.5882Z" fill="#F6255A"/>
<ellipse cx="27.5087" cy="52.1053" rx="4.91228" ry="4.91228" stroke="#F6255A" stroke-width="3"/>
<rect y="49.7866" width="15.5443" height="3" rx="1.5" fill="#F6255A"/>
<rect x="38.4907" y="49.7866" width="15.5443" height="3" rx="1.5" fill="#F6255A"/>
</svg>
