<svg width="60" height="60" viewBox="0 0 60 60" fill="none" xmlns="http://www.w3.org/2000/svg">
<path fill-rule="evenodd" clip-rule="evenodd" d="M26.2307 13.3075C26.2307 6.17041 32.0166 0.384644 39.1538 0.384644H45.0769C53.1062 0.384644 59.6153 6.89363 59.6153 14.9229V33.2303C59.6153 41.2595 53.1062 47.7685 45.0769 47.7685H40.7692C32.7398 47.7685 26.2307 41.2595 26.2307 33.2303V31.0764C26.2307 30.1843 26.9539 29.4611 27.8461 29.4611C28.7382 29.4611 29.4615 30.1843 29.4615 31.0764V33.2303C29.4615 39.4752 34.5241 44.5378 40.7692 44.5378H45.0769C51.3219 44.5378 56.3846 39.4752 56.3846 33.2303V14.9229C56.3846 8.6779 51.3219 3.61536 45.0769 3.61536H39.1538C33.8009 3.61536 29.4615 7.95468 29.4615 13.3075C29.4615 14.1996 28.7382 14.9229 27.8461 14.9229C26.9539 14.9229 26.2307 14.1996 26.2307 13.3075Z" fill="#F6255A"/>
<path d="M34.3076 16.5382C34.3076 15.6461 35.0308 14.9229 35.923 14.9229H47.7692C48.6613 14.9229 49.3845 15.6461 49.3845 16.5382C49.3845 17.4303 48.6613 18.1536 47.7692 18.1536H35.923C35.0308 18.1536 34.3076 17.4303 34.3076 16.5382Z" fill="#F6255A"/>
<path d="M34.3076 24.0765C34.3076 23.1844 35.0309 22.4612 35.923 22.4612H42.3845C43.2767 22.4612 43.9999 23.1844 43.9999 24.0765C43.9999 24.9687 43.2767 25.6919 42.3845 25.6919H35.923C35.0309 25.6919 34.3076 24.9687 34.3076 24.0765Z" fill="#F6255A"/>
<path fill-rule="evenodd" clip-rule="evenodd" d="M8.17283 22.1089C6.9641 22.1089 5.80487 22.5891 4.95016 23.4437C4.09546 24.2984 3.61529 25.4576 3.61529 26.6664V41.023L6.75541 42.7189C7.27765 43.001 7.60314 43.5467 7.60314 44.1402V56.3846H15.4841V44.1402C15.4841 43.5467 15.8096 43.001 16.3318 42.7189L19.4719 41.023V26.6664C19.4719 25.7742 20.1951 25.051 21.0873 25.051C21.9794 25.051 22.7027 25.7742 22.7027 26.6664V41.9864C22.7027 42.5799 22.3772 43.1257 21.855 43.4077L18.7148 45.1037V58C18.7148 58.8921 17.9916 59.6153 17.0994 59.6153H5.98775C5.0956 59.6153 4.37237 58.8921 4.37237 58V45.1037L1.23224 43.4077C0.710013 43.1257 0.384521 42.5799 0.384521 41.9864V26.6664C0.384521 24.6008 1.20507 22.6198 2.66566 21.1593C4.12625 19.6987 6.10724 18.8782 8.17283 18.8782H28.3845C29.2767 18.8782 29.9999 19.6014 29.9999 20.4935C29.9999 21.3857 29.2767 22.1089 28.3845 22.1089H8.17283Z" fill="#F6255A"/>
<path fill-rule="evenodd" clip-rule="evenodd" d="M11.5444 7.92298C9.85724 7.92298 8.48956 9.29063 8.48956 10.9777C8.48956 12.6648 9.85724 14.0325 11.5444 14.0325C13.2315 14.0325 14.5992 12.6648 14.5992 10.9777C14.5992 9.29063 13.2315 7.92298 11.5444 7.92298ZM5.25879 10.9777C5.25879 7.50636 8.07293 4.69226 11.5444 4.69226C15.0158 4.69226 17.8299 7.50636 17.8299 10.9777C17.8299 14.4491 15.0158 17.2632 11.5444 17.2632C8.07293 17.2632 5.25879 14.4491 5.25879 10.9777Z" fill="#F6255A"/>
<path fill-rule="evenodd" clip-rule="evenodd" d="M28.2856 57.4285C28.2856 56.4817 29.0532 55.7142 29.9999 55.7142H55.1428C56.0896 55.7142 56.8571 56.4817 56.8571 57.4285C56.8571 58.3753 56.0896 59.1428 55.1428 59.1428H29.9999C29.0532 59.1428 28.2856 58.3753 28.2856 57.4285Z" fill="#F6255A"/>
<path fill-rule="evenodd" clip-rule="evenodd" d="M42.5715 50C43.5182 50 44.2857 50.7675 44.2857 51.7143L44.2857 56.2857C44.2857 57.2325 43.5182 58 42.5715 58C41.6247 58 40.8572 57.2325 40.8572 56.2857L40.8572 51.7143C40.8572 50.7675 41.6247 50 42.5715 50Z" fill="#F6255A"/>
</svg>
