<svg width="56" height="60" viewBox="0 0 56 60" fill="none" xmlns="http://www.w3.org/2000/svg">
<path d="M53.6516 14.7273C53.6516 16.1021 52.7149 17.6031 50.6521 18.8408C48.6191 20.0606 45.7137 20.8637 42.4243 20.8637C39.1349 20.8637 36.2295 20.0606 34.1965 18.8408C32.1336 17.6031 31.197 16.1021 31.197 14.7273C31.197 13.3525 32.1336 11.8515 34.1965 10.6138C36.2295 9.39402 39.1349 8.59094 42.4243 8.59094C45.7137 8.59094 48.6191 9.39402 50.6521 10.6138C52.7149 11.8515 53.6516 13.3525 53.6516 14.7273Z" stroke="#F6255A" stroke-width="3"/>
<path d="M23.9545 35.091C23.9545 36.4658 23.0179 37.9667 20.9551 39.2044C18.9221 40.4242 16.0167 41.2273 12.7273 41.2273C9.43785 41.2273 6.53247 40.4242 4.49948 39.2044C2.43662 37.9667 1.5 36.4658 1.5 35.091C1.5 33.7161 2.43662 32.2152 4.49948 30.9775C6.53247 29.7577 9.43785 28.9546 12.7273 28.9546C16.0167 28.9546 18.9221 29.7577 20.9551 30.9775C23.0179 32.2152 23.9545 33.7161 23.9545 35.091Z" stroke="#F6255A" stroke-width="3"/>
<path d="M31.394 25.7576C31.394 25.7576 34.788 29.1515 42.4243 29.1515C50.0607 29.1515 53.0304 25.7576 53.0304 25.7576" stroke="#F6255A" stroke-width="3" stroke-linecap="round"/>
<path d="M1.69702 45.2727C1.69702 45.2727 5.09096 48.6666 12.7273 48.6666C20.3637 48.6666 23.3334 45.2727 23.3334 45.2727" stroke="#F6255A" stroke-width="3" stroke-linecap="round"/>
<path d="M31.394 35.0909C31.394 35.0909 34.788 38.4849 42.4243 38.4849C50.0607 38.4849 53.0304 35.0909 53.0304 35.0909" stroke="#F6255A" stroke-width="3" stroke-linecap="round"/>
<path d="M1.69702 54.6061C1.69702 54.6061 5.09096 58 12.7273 58C20.3637 58 23.3334 54.6061 23.3334 54.6061" stroke="#F6255A" stroke-width="3" stroke-linecap="round"/>
<path d="M4.24243 9.63636L12.0583 2.60207C12.4386 2.25979 13.0159 2.25979 13.3962 2.60207L21.2121 9.63636" stroke="#F6255A" stroke-width="3" stroke-linecap="round"/>
<path d="M31.394 44.4242C31.394 44.4242 34.788 47.8181 42.4243 47.8181C50.0607 47.8181 53.0304 44.4242 53.0304 44.4242" stroke="#F6255A" stroke-width="3" stroke-linecap="round"/>
<path d="M31.394 53.7576C31.394 53.7576 34.788 57.1515 42.4243 57.1515C50.0607 57.1515 53.0304 53.7576 53.0304 53.7576" stroke="#F6255A" stroke-width="3" stroke-linecap="round"/>
<rect x="11.4546" y="7.09094" width="2.54545" height="12.7273" rx="1.27273" fill="#F6255A"/>
</svg>
